<?xml version="1.0" encoding="UTF-8"?>
<svg width="200px" height="200px" viewBox="0 0 200 200" version="1.1" xmlns="http://www.w3.org/2000/svg" xmlns:xlink="http://www.w3.org/1999/xlink">
    <title>Pickle Rick</title>
    <g stroke="none" stroke-width="1" fill="none" fill-rule="evenodd">
        <!-- Основная форма огурца -->
        <path d="M100,20 C130,20 140,40 145,70 C150,100 150,130 145,160 C140,175 120,180 100,180 C80,180 60,175 55,160 C50,130 50,100 55,70 C60,40 70,20 100,20 Z" fill="#5CFF32"></path>
        
        <!-- Более темные штрихи -->
        <path d="M70,30 C85,35 90,40 95,45 C100,50 105,55 110,60 C115,65 120,70 125,80 C130,90 135,110 135,130 C135,150 130,165 125,175" stroke="#36A520" stroke-width="2" stroke-linecap="round"></path>
        <path d="M75,160 C80,155 85,150 90,140 C95,130 100,110 100,90 C100,70 95,50 90,40 C85,30 80,27 75,25" stroke="#36A520" stroke-width="2" stroke-linecap="round"></path>
        
        <!-- Бугорки на огурце -->
        <circle fill="#7DFF5B" cx="70" cy="50" r="5"></circle>
        <circle fill="#7DFF5B" cx="130" cy="50" r="5"></circle>
        <circle fill="#7DFF5B" cx="85" cy="70" r="4"></circle>
        <circle fill="#7DFF5B" cx="115" cy="70" r="4"></circle>
        <circle fill="#7DFF5B" cx="75" cy="90" r="5"></circle>
        <circle fill="#7DFF5B" cx="125" cy="90" r="5"></circle>
        <circle fill="#7DFF5B" cx="65" cy="120" r="4"></circle>
        <circle fill="#7DFF5B" cx="135" cy="120" r="4"></circle>
        <circle fill="#7DFF5B" cx="85" cy="140" r="5"></circle>
        <circle fill="#7DFF5B" cx="115" cy="140" r="5"></circle>
        <circle fill="#7DFF5B" cx="75" cy="160" r="4"></circle>
        <circle fill="#7DFF5B" cx="125" cy="160" r="4"></circle>
        
        <!-- Лицо -->
        <ellipse fill="#FFFFFF" cx="80" cy="40" rx="10" ry="12"></ellipse>
        <ellipse fill="#FFFFFF" cx="120" cy="40" rx="10" ry="12"></ellipse>
        <ellipse fill="#000000" cx="80" cy="40" rx="5" ry="7"></ellipse>
        <ellipse fill="#000000" cx="120" cy="40" rx="5" ry="7"></ellipse>
        
        <!-- Рот -->
        <path d="M85,60 C95,65 105,65 115,60" stroke="#000000" stroke-width="2" stroke-linecap="round"></path>
        
        <!-- Брови -->
        <path d="M70,30 C80,25 85,30 90,35" stroke="#000000" stroke-width="2" stroke-linecap="round"></path>
        <path d="M130,30 C120,25 115,30 110,35" stroke="#000000" stroke-width="2" stroke-linecap="round"></path>
        
        <!-- Руки из огурчика -->
        <path d="M50,90 C40,85 35,80 30,90 C25,100 30,105 40,100" stroke="#5CFF32" stroke-width="5" stroke-linecap="round"></path>
        <path d="M150,90 C160,85 165,80 170,90 C175,100 170,105 160,100" stroke="#5CFF32" stroke-width="5" stroke-linecap="round"></path>
    </g>
</svg> 